<?xml version="1.0" encoding="iso-8859-1"?>
<!-- Generator: Adobe Illustrator 19.0.0, SVG Export Plug-In . SVG Version: 6.00 Build 0)  -->
<svg version="1.1" id="Layer_1" xmlns="http://www.w3.org/2000/svg" xmlns:xlink="http://www.w3.org/1999/xlink" x="0px" y="0px"
	 viewBox="0 0 502 502" style="enable-background:new 0 0 502 502;" xml:space="preserve">
<g>
	<g>
		<g>
			<path style="fill:#E6E6E6;" d="M391.384,280.348H110.615c-16.209,0-29.348-13.14-29.348-29.348s13.14-29.348,29.348-29.348
				h280.767c16.209,0,29.348,13.14,29.348,29.348S407.592,280.348,391.384,280.348z"/>
			<path d="M391.383,290.349H110.617c-21.697,0-39.349-17.652-39.349-39.349s17.652-39.349,39.349-39.349h280.767
				c21.697,0,39.349,17.652,39.349,39.349S413.079,290.349,391.383,290.349z M110.617,231.651c-10.669,0-19.349,8.68-19.349,19.349
				s8.68,19.349,19.349,19.349h280.767c10.669,0,19.349-8.68,19.349-19.349s-8.68-19.349-19.349-19.349H110.617z"/>
		</g>
	</g>
	<g>
		<g>
			<path style="fill:#E6E6E6;" d="M349.269,167.308c-7.529,0-15.055-2.878-20.789-8.632l-77.48-77.75l-77.48,77.75
				c-11.441,11.48-30.024,11.514-41.505,0.072c-11.481-11.441-11.513-30.024-0.072-41.505l98.269-98.611
				C235.717,13.106,243.199,10,250.999,10c7.801,0,15.282,3.106,20.789,8.632l98.269,98.611
				c11.441,11.481,11.409,30.064-0.072,41.505C364.258,164.455,356.762,167.308,349.269,167.308z"/>
			<path d="M349.27,177.308C349.269,177.308,349.269,177.308,349.27,177.308c-10.536,0-20.435-4.109-27.873-11.574l-70.397-70.641
				l-70.396,70.642c-7.419,7.445-17.293,11.555-27.803,11.574c-0.023,0-0.048,0-0.071,0c-10.485,0-20.345-4.074-27.773-11.477
				c-7.445-7.418-11.555-17.293-11.573-27.803c-0.018-10.51,4.058-20.399,11.477-27.844l98.269-98.61
				C230.456,4.218,240.615,0,250.999,0c10.384,0,20.543,4.218,27.872,11.574l98.269,98.611c7.419,7.444,11.495,17.333,11.477,27.843
				c-0.019,10.51-4.128,20.385-11.574,27.804C369.618,173.232,359.753,177.308,349.27,177.308L349.27,177.308z M250.999,70.926
				c2.658,0,5.207,1.059,7.083,2.941l77.48,77.75c3.657,3.67,8.524,5.691,13.705,5.691l0,0c5.155,0,10.005-2.004,13.657-5.643
				c3.661-3.648,5.682-8.504,5.691-13.672s-1.995-10.03-5.643-13.691l-98.269-98.611C261.101,22.074,256.105,20,250.999,20
				c-5.106,0-10.101,2.074-13.705,5.691l-98.269,98.611c-3.648,3.661-5.652,8.523-5.644,13.691
				c0.009,5.168,2.03,10.023,5.691,13.671c3.653,3.64,8.501,5.644,13.656,5.644c0.012,0,0.023,0,0.035,0
				c5.168-0.009,10.023-2.03,13.671-5.691l77.48-77.75C245.792,71.984,248.341,70.926,250.999,70.926z"/>
		</g>
	</g>
	<g>
		<g>
			<path style="fill:#E6E6E6;" d="M250.999,492c-7.801,0-15.282-3.106-20.788-8.632l-98.269-98.611
				c-11.441-11.481-11.409-30.064,0.072-41.505s30.064-11.409,41.505,0.072l77.48,77.75l77.48-77.75
				c11.441-11.48,30.023-11.514,41.505-0.072c11.481,11.441,11.513,30.024,0.072,41.505l-98.269,98.611
				C266.282,488.894,258.801,492,250.999,492z"/>
			<path d="M250.999,502c-10.384,0-20.543-4.218-27.872-11.574l-98.269-98.611c-7.419-7.444-11.495-17.333-11.477-27.843
				c0.019-10.51,4.128-20.385,11.574-27.804c15.369-15.314,40.332-15.271,55.647,0.097l70.397,70.642l70.396-70.642
				c7.419-7.445,17.293-11.555,27.803-11.574c0.023,0,0.048,0,0.071,0c10.484,0,20.344,4.074,27.773,11.477
				c7.445,7.419,11.555,17.293,11.573,27.804c0.018,10.51-4.058,20.399-11.477,27.844l-98.269,98.61
				C271.543,497.782,261.384,502,250.999,502z M152.73,344.692c-5.156,0-10.004,2.003-13.657,5.644
				c-3.661,3.648-5.682,8.503-5.691,13.671c-0.009,5.168,1.995,10.03,5.643,13.691l98.269,98.611
				c3.604,3.617,8.599,5.691,13.705,5.691c5.106,0,10.101-2.074,13.705-5.691l98.269-98.611c3.648-3.661,5.652-8.523,5.644-13.691
				c-0.009-5.168-2.03-10.023-5.691-13.671c-3.653-3.64-8.501-5.644-13.657-5.644c-0.012,0-0.023,0-0.035,0
				c-5.168,0.009-10.023,2.03-13.671,5.691l-77.48,77.75c-1.876,1.883-4.425,2.941-7.083,2.941s-5.207-1.059-7.083-2.941
				l-77.48-77.75c-3.648-3.661-8.503-5.682-13.671-5.691C152.753,344.692,152.742,344.692,152.73,344.692z"/>
		</g>
	</g>
	<g>
		<path d="M220.999,76c-2.559,0-5.119-0.976-7.071-2.929c-3.905-3.905-3.905-10.237,0-14.143l7-7c3.905-3.905,10.237-3.905,14.143,0
			c3.905,3.905,3.905,10.237,0,14.143l-7,7C226.118,75.024,223.559,76,220.999,76z"/>
	</g>
	<g>
		<path d="M149.999,147c-2.559,0-5.119-0.976-7.071-2.929c-3.905-3.905-3.905-10.237,0-14.143l49-49
			c3.905-3.905,10.237-3.905,14.143,0c3.905,3.905,3.905,10.237,0,14.143l-49,49C155.118,146.024,152.559,147,149.999,147z"/>
	</g>
</g>
<g>
</g>
<g>
</g>
<g>
</g>
<g>
</g>
<g>
</g>
<g>
</g>
<g>
</g>
<g>
</g>
<g>
</g>
<g>
</g>
<g>
</g>
<g>
</g>
<g>
</g>
<g>
</g>
<g>
</g>
</svg>
